<svg width="1930" height="1316" xmlns="http://www.w3.org/2000/svg" xmlns:xlink="http://www.w3.org/1999/xlink" xml:space="preserve" overflow="hidden"><g transform="translate(-247 -821)"><path d="M248 1121 2012 1121" stroke="#B3B3B3" stroke-width="2.29167" stroke-miterlimit="1.27" fill="none" fill-rule="evenodd"/><path d="M248 1835 2012 1835" stroke="#B3B3B3" stroke-width="2.29167" stroke-miterlimit="1.27" fill="none" fill-rule="evenodd"/><path d="M1574 2135 1574 822" stroke="#B3B3B3" stroke-width="2.29167" stroke-miterlimit="1.27" fill="none" fill-rule="evenodd"/><path d="M674 2135 674 822" stroke="#B3B3B3" stroke-width="2.29167" stroke-miterlimit="1.27" fill="none" fill-rule="evenodd"/><path d="M248.5 2135.5 2012.5 2135.5 2012.5 822.5 248.5 822.5Z" stroke="#B3B3B3" stroke-width="2.75469" stroke-miterlimit="1.27" fill="none" fill-rule="evenodd"/><path d="M791 1279 885.147 1279 968.926 1378.61 1051.9 1279 1173 1279 973.025 1520.84 885.147 1424.04 884.351 1589 791 1589 791 1279Z" fill="#B6CE4B" fill-rule="evenodd"/><path d="M1205 1137C1239.24 1137 1267 1164.76 1267 1199 1267 1233.24 1239.24 1261 1205 1261 1196.19 1261 1187.42 1259.13 1179.41 1255.5 1167.5 1250.09 1157.44 1240.89 1151 1229.5 1147.73 1223.72 1145.4 1217.42 1144.13 1210.9 1143.74 1208.9 1141.92 1202.59 1143.03 1200.81 1143.18 1200.55 1143.43 1200.32 1143.75 1200.09 1146.28 1198.26 1155.86 1197.18 1155.86 1197.18 1176.42 1194.98 1195.29 1191.99 1213 1183.19 1190.31 1187.92 1167.18 1190.57 1144.01 1191.14 1128.69 1191.51 1113.36 1190.98 1098.11 1189.53 1095.82 1189.32 1093.01 1188.65 1092.49 1186.41 1092 1184.26 1094.04 1182.45 1095.9 1181.27 1106.7 1174.48 1119.38 1170.72 1132.13 1170.54 1136.04 1170.49 1139.99 1170.76 1143.84 1170.06 1150.69 1168.8 1153.32 1164.13 1157.44 1159.21 1161.26 1154.65 1165.74 1150.64 1170.7 1147.34 1180.82 1140.61 1192.84 1137 1205 1137Z" fill="#B6CE4B" fill-rule="evenodd"/><path d="M1136 1495 1135.81 1495.24 1058.74 1589.45 951 1590 1028.38 1495.24 1028.44 1495.16 1136 1495Z" fill="#B6CE4B" fill-rule="evenodd"/><path d="M1206.17 1279 1289.01 1279 1449 1589 1113.86 1589 1191.02 1495.33 1191.27 1495.02 1193.93 1495.02 1193.93 1494.96 1294.64 1494.96 1282.86 1469.99 1236.98 1372.65 1156.76 1469.86 1124.73 1469.83 1049 1469.83 1206.17 1279Z" fill="#B6CE4B" fill-rule="evenodd"/><path d="M791 1279 885.147 1279 968.926 1378.61 1051.9 1279 1173 1279 973.025 1520.84 885.147 1424.04 884.351 1589 791 1589 791 1279Z" fill="#B6CE4B" fill-rule="evenodd"/><path d="M1205 1137C1239.24 1137 1267 1164.76 1267 1199 1267 1233.24 1239.24 1261 1205 1261 1196.19 1261 1187.42 1259.13 1179.41 1255.5 1167.5 1250.09 1157.44 1240.89 1151 1229.5 1147.73 1223.72 1145.4 1217.42 1144.13 1210.9 1143.74 1208.9 1141.92 1202.59 1143.03 1200.81 1143.18 1200.55 1143.43 1200.32 1143.75 1200.09 1146.28 1198.26 1155.86 1197.18 1155.86 1197.18 1176.42 1194.98 1195.29 1191.99 1213 1183.19 1190.31 1187.92 1167.18 1190.57 1144.01 1191.14 1128.69 1191.51 1113.36 1190.98 1098.11 1189.53 1095.82 1189.32 1093.01 1188.65 1092.49 1186.41 1092 1184.26 1094.04 1182.45 1095.9 1181.27 1106.7 1174.48 1119.38 1170.72 1132.13 1170.54 1136.04 1170.49 1139.99 1170.76 1143.84 1170.06 1150.69 1168.8 1153.32 1164.13 1157.44 1159.21 1161.26 1154.65 1165.74 1150.64 1170.7 1147.34 1180.82 1140.61 1192.84 1137 1205 1137Z" fill="#B6CE4B" fill-rule="evenodd"/><path d="M1136 1495 1135.81 1495.24 1058.74 1589.45 951 1590 1028.38 1495.24 1028.44 1495.16 1136 1495Z" fill="#B6CE4B" fill-rule="evenodd"/><path d="M1206.17 1279 1289.01 1279 1449 1589 1113.86 1589 1191.02 1495.33 1191.27 1495.02 1193.93 1495.02 1193.93 1494.96 1294.64 1494.96 1282.86 1469.99 1236.98 1372.65 1156.76 1469.86 1124.73 1469.83 1049 1469.83 1206.17 1279Z" fill="#B6CE4B" fill-rule="evenodd"/><text fill="#192B42" font-family="Lato,Lato_MSFontService,sans-serif" font-weight="700" font-size="138" transform="matrix(1 0 0 1 667.714 1803)">M2A</text><text fill="#192B42" font-family="Lato,Lato_MSFontService,sans-serif" font-style="oblique" font-weight="400" font-size="138" transform="matrix(1 0 0 1 1003.41 1803)">Logistique</text><path d="M898 915 960.358 915 1015.84 981.196 1070.8 915 1151 915 1018.56 1075.71 960.358 1011.38 959.828 1121 898 1121 898 915Z" fill="#B6CE4B" fill-rule="evenodd"/><path d="M1172.54 822C1195.44 822 1214 840.354 1214 863 1214 885.641 1195.44 904 1172.54 904 1166.66 904 1160.8 902.762 1155.44 900.358 1147.48 896.784 1140.75 890.696 1136.45 883.169 1134.26 879.348 1132.7 875.18 1131.85 870.87 1131.59 869.545 1130.38 865.372 1131.12 864.193 1131.22 864.028 1131.39 863.868 1131.6 863.718 1133.29 862.511 1139.7 861.798 1139.7 861.798 1153.44 860.34 1166.06 858.366 1177.9 852.538 1162.72 855.674 1147.26 857.424 1131.77 857.799 1121.53 858.046 1111.28 857.689 1101.08 856.739 1099.56 856.597 1097.67 856.149 1097.33 854.673 1097 853.252 1098.37 852.05 1099.61 851.277 1106.83 846.785 1115.31 844.298 1123.83 844.18 1126.45 844.143 1129.09 844.326 1131.66 843.855 1136.24 843.023 1138 839.938 1140.75 836.689 1143.31 833.668 1146.3 831.017 1149.62 828.837 1156.39 824.385 1164.42 822 1172.54 822Z" fill="#B6CE4B" fill-rule="evenodd"/><path d="M1127 1059 1126.87 1059.15 1075.63 1120.64 1004 1121 1055.44 1059.15 1055.49 1059.1 1127 1059Z" fill="#B6CE4B" fill-rule="evenodd"/><path d="M1173.13 915 1228 915 1334 1121 1111.97 1121 1163.09 1058.76 1163.25 1058.55 1165.02 1058.55 1165.02 1058.51 1231.73 1058.51 1223.93 1041.92 1193.54 977.235 1140.39 1041.83 1119.17 1041.81 1069 1041.81 1173.13 915Z" fill="#B6CE4B" fill-rule="evenodd"/><path d="M898 915 960.358 915 1015.84 981.196 1070.8 915 1151 915 1018.56 1075.71 960.358 1011.38 959.828 1121 898 1121 898 915Z" fill="#E8E8E8" fill-rule="evenodd"/><path d="M1172.54 822C1195.44 822 1214 840.354 1214 863 1214 885.641 1195.44 904 1172.54 904 1166.66 904 1160.8 902.762 1155.44 900.358 1147.48 896.784 1140.75 890.696 1136.45 883.169 1134.26 879.348 1132.7 875.18 1131.85 870.87 1131.59 869.545 1130.38 865.372 1131.12 864.193 1131.22 864.028 1131.39 863.868 1131.6 863.718 1133.29 862.511 1139.7 861.798 1139.7 861.798 1153.44 860.34 1166.06 858.366 1177.9 852.538 1162.72 855.674 1147.26 857.424 1131.77 857.799 1121.53 858.046 1111.28 857.689 1101.08 856.739 1099.56 856.597 1097.67 856.149 1097.33 854.673 1097 853.252 1098.37 852.05 1099.61 851.277 1106.83 846.785 1115.31 844.298 1123.83 844.18 1126.45 844.143 1129.09 844.326 1131.66 843.855 1136.24 843.023 1138 839.938 1140.75 836.689 1143.31 833.668 1146.3 831.017 1149.62 828.837 1156.39 824.385 1164.42 822 1172.54 822Z" fill="#E8E8E8" fill-rule="evenodd"/><path d="M1127 1059 1126.87 1059.15 1075.63 1120.64 1004 1121 1055.44 1059.15 1055.49 1059.1 1127 1059Z" fill="#E8E8E8" fill-rule="evenodd"/><path d="M1173.13 915 1228 915 1334 1121 1111.97 1121 1163.09 1058.76 1163.25 1058.55 1165.02 1058.55 1165.02 1058.51 1231.73 1058.51 1223.93 1041.92 1193.54 977.235 1140.39 1041.83 1119.17 1041.81 1069 1041.81 1173.13 915Z" fill="#E8E8E8" fill-rule="evenodd"/><path d="M933 1925 995.605 1925 1051.31 1991.2 1106.48 1925 1187 1925 1054.04 2085.71 995.605 2021.38 995.072 2131 933 2131 933 1925Z" fill="#B6CE4B" fill-rule="evenodd"/><path d="M1207.9 1831C1230.6 1831 1249 1849.35 1249 1872 1249 1894.64 1230.6 1913 1207.9 1913 1202.07 1913 1196.25 1911.76 1190.94 1909.36 1183.04 1905.78 1176.38 1899.7 1172.11 1892.17 1169.94 1888.35 1168.4 1884.18 1167.55 1879.87 1167.3 1878.54 1166.09 1874.37 1166.83 1873.19 1166.93 1873.03 1167.09 1872.87 1167.3 1872.72 1168.98 1871.51 1175.33 1870.8 1175.33 1870.8 1188.96 1869.34 1201.47 1867.37 1213.2 1861.54 1198.16 1864.67 1182.83 1866.42 1167.48 1866.8 1157.32 1867.05 1147.16 1866.69 1137.05 1865.74 1135.53 1865.6 1133.67 1865.15 1133.33 1863.67 1133 1862.25 1134.36 1861.05 1135.59 1860.28 1142.74 1855.78 1151.15 1853.3 1159.6 1853.18 1162.2 1853.14 1164.81 1853.33 1167.37 1852.86 1171.91 1852.02 1173.65 1848.94 1176.38 1845.69 1178.91 1842.67 1181.88 1840.02 1185.17 1837.84 1191.88 1833.39 1199.84 1831 1207.9 1831Z" fill="#B6CE4B" fill-rule="evenodd"/><path d="M1162 2068 1161.87 2068.16 1110.63 2130.64 1039 2131 1090.44 2068.16 1090.49 2068.11 1162 2068Z" fill="#B6CE4B" fill-rule="evenodd"/><path d="M1208.13 1925 1263 1925 1369 2131 1146.97 2131 1198.09 2068.76 1198.25 2068.55 1200.02 2068.55 1200.02 2068.51 1266.73 2068.51 1258.93 2051.92 1228.54 1987.23 1175.39 2051.83 1154.17 2051.81 1104 2051.81 1208.13 1925Z" fill="#B6CE4B" fill-rule="evenodd"/><path d="M933 1925 995.605 1925 1051.31 1991.2 1106.48 1925 1187 1925 1054.04 2085.71 995.605 2021.38 995.072 2131 933 2131 933 1925Z" fill="#E8E8E8" fill-rule="evenodd"/><path d="M1207.9 1831C1230.6 1831 1249 1849.35 1249 1872 1249 1894.64 1230.6 1913 1207.9 1913 1202.07 1913 1196.25 1911.76 1190.94 1909.36 1183.04 1905.78 1176.38 1899.7 1172.11 1892.17 1169.94 1888.35 1168.4 1884.18 1167.55 1879.87 1167.3 1878.54 1166.09 1874.37 1166.83 1873.19 1166.93 1873.03 1167.09 1872.87 1167.3 1872.72 1168.98 1871.51 1175.33 1870.8 1175.33 1870.8 1188.96 1869.34 1201.47 1867.37 1213.2 1861.54 1198.16 1864.67 1182.83 1866.42 1167.48 1866.8 1157.32 1867.05 1147.16 1866.69 1137.05 1865.74 1135.53 1865.6 1133.67 1865.15 1133.33 1863.67 1133 1862.25 1134.36 1861.05 1135.59 1860.28 1142.74 1855.78 1151.15 1853.3 1159.6 1853.18 1162.2 1853.14 1164.81 1853.33 1167.37 1852.86 1171.91 1852.02 1173.65 1848.94 1176.38 1845.69 1178.91 1842.67 1181.88 1840.02 1185.17 1837.84 1191.88 1833.39 1199.84 1831 1207.9 1831Z" fill="#E8E8E8" fill-rule="evenodd"/><path d="M1162 2068 1161.87 2068.16 1110.63 2130.64 1039 2131 1090.44 2068.16 1090.49 2068.11 1162 2068Z" fill="#E8E8E8" fill-rule="evenodd"/><path d="M1208.13 1925 1263 1925 1369 2131 1146.97 2131 1198.09 2068.76 1198.25 2068.55 1200.02 2068.55 1200.02 2068.51 1266.73 2068.51 1258.93 2051.92 1228.54 1987.23 1175.39 2051.83 1154.17 2051.81 1104 2051.81 1208.13 1925Z" fill="#E8E8E8" fill-rule="evenodd"/><path d="M1576 1427 1638.36 1427 1693.84 1493.2 1748.8 1427 1829 1427 1696.56 1587.71 1638.36 1523.38 1637.83 1633 1576 1633 1576 1427Z" fill="#B6CE4B" fill-rule="evenodd"/><path d="M1849.9 1334C1872.6 1334 1891 1352.35 1891 1375 1891 1397.64 1872.6 1416 1849.9 1416 1844.07 1416 1838.25 1414.76 1832.94 1412.36 1825.04 1408.78 1818.38 1402.7 1814.11 1395.17 1811.94 1391.35 1810.4 1387.18 1809.55 1382.87 1809.3 1381.54 1808.09 1377.37 1808.83 1376.19 1808.93 1376.03 1809.09 1375.87 1809.3 1375.72 1810.98 1374.51 1817.33 1373.8 1817.33 1373.8 1830.96 1372.34 1843.47 1370.37 1855.2 1364.54 1840.16 1367.67 1824.83 1369.42 1809.48 1369.8 1799.32 1370.05 1789.16 1369.69 1779.05 1368.74 1777.53 1368.6 1775.67 1368.15 1775.33 1366.67 1775 1365.25 1776.36 1364.05 1777.59 1363.28 1784.75 1358.78 1793.15 1356.3 1801.61 1356.18 1804.2 1356.14 1806.81 1356.33 1809.37 1355.86 1813.91 1355.02 1815.65 1351.94 1818.38 1348.69 1820.91 1345.67 1823.88 1343.02 1827.17 1340.84 1833.88 1336.39 1841.84 1334 1849.9 1334Z" fill="#B6CE4B" fill-rule="evenodd"/><path d="M1804 1571 1803.87 1571.16 1753.05 1633.64 1682 1634 1733.03 1571.16 1733.07 1571.11 1804 1571Z" fill="#B6CE4B" fill-rule="evenodd"/><path d="M1851.13 1427 1906 1427 2012 1633 1789.97 1633 1841.09 1570.76 1841.25 1570.55 1843.02 1570.55 1843.02 1570.51 1909.73 1570.51 1901.93 1553.92 1871.54 1489.23 1818.39 1553.83 1797.17 1553.81 1747 1553.81 1851.13 1427Z" fill="#B6CE4B" fill-rule="evenodd"/><path d="M1576 1427 1638.36 1427 1693.84 1493.2 1748.8 1427 1829 1427 1696.56 1587.71 1638.36 1523.38 1637.83 1633 1576 1633 1576 1427Z" fill="#E8E8E8" fill-rule="evenodd"/><path d="M1849.9 1334C1872.6 1334 1891 1352.35 1891 1375 1891 1397.64 1872.6 1416 1849.9 1416 1844.07 1416 1838.25 1414.76 1832.94 1412.36 1825.04 1408.78 1818.38 1402.7 1814.11 1395.17 1811.94 1391.35 1810.4 1387.18 1809.55 1382.87 1809.3 1381.54 1808.09 1377.37 1808.83 1376.19 1808.93 1376.03 1809.09 1375.87 1809.3 1375.72 1810.98 1374.51 1817.33 1373.8 1817.33 1373.8 1830.96 1372.34 1843.47 1370.37 1855.2 1364.54 1840.16 1367.67 1824.83 1369.42 1809.48 1369.8 1799.32 1370.05 1789.16 1369.69 1779.05 1368.74 1777.53 1368.6 1775.67 1368.15 1775.33 1366.67 1775 1365.25 1776.36 1364.05 1777.59 1363.28 1784.75 1358.78 1793.15 1356.3 1801.61 1356.18 1804.2 1356.14 1806.81 1356.33 1809.37 1355.86 1813.91 1355.02 1815.65 1351.94 1818.38 1348.69 1820.91 1345.67 1823.88 1343.02 1827.17 1340.84 1833.88 1336.39 1841.84 1334 1849.9 1334Z" fill="#E8E8E8" fill-rule="evenodd"/><path d="M1804 1571 1803.87 1571.16 1753.05 1633.64 1682 1634 1733.03 1571.16 1733.07 1571.11 1804 1571Z" fill="#E8E8E8" fill-rule="evenodd"/><path d="M1851.13 1427 1906 1427 2012 1633 1789.97 1633 1841.09 1570.76 1841.25 1570.55 1843.02 1570.55 1843.02 1570.51 1909.73 1570.51 1901.93 1553.92 1871.54 1489.23 1818.39 1553.83 1797.17 1553.81 1747 1553.81 1851.13 1427Z" fill="#E8E8E8" fill-rule="evenodd"/><path d="M248 1424 309.123 1424 363.51 1486.02 417.38 1424 496 1424 366.177 1574.56 309.123 1514.3 308.605 1617 248 1617 248 1424Z" fill="#B6CE4B" fill-rule="evenodd"/><path d="M515.96 1336C538.076 1336 556 1353.24 556 1374.5 556 1395.76 538.076 1413 515.96 1413 510.277 1413 504.617 1411.84 499.441 1409.58 491.747 1406.22 485.257 1400.51 481.092 1393.44 478.981 1389.85 477.48 1385.94 476.659 1381.89 476.409 1380.64 475.232 1376.73 475.948 1375.62 476.048 1375.46 476.208 1375.31 476.413 1375.17 478.05 1374.04 484.235 1373.37 484.235 1373.37 497.511 1372 509.698 1370.14 521.128 1364.68 506.474 1367.62 491.546 1369.26 476.582 1369.61 466.694 1369.85 456.792 1369.51 446.941 1368.62 445.468 1368.48 443.652 1368.07 443.319 1366.68 443 1365.35 444.318 1364.22 445.522 1363.49 452.491 1359.27 460.678 1356.94 468.915 1356.83 471.437 1356.79 473.991 1356.96 476.472 1356.52 480.901 1355.74 482.593 1352.84 485.252 1349.79 487.724 1346.96 490.615 1344.46 493.817 1342.42 500.353 1338.24 508.115 1336 515.96 1336Z" fill="#B6CE4B" fill-rule="evenodd"/><path d="M471 1559 470.876 1559.15 420.885 1617.66 351 1618 401.192 1559.15 401.229 1559.1 471 1559Z" fill="#B6CE4B" fill-rule="evenodd"/><path d="M516.771 1424 570.407 1424 674 1617 456.998 1617 506.959 1558.68 507.124 1558.49 508.845 1558.49 508.845 1558.45 574.052 1558.45 566.424 1542.91 536.714 1482.31 484.776 1542.82 464.035 1542.81 415 1542.81 516.771 1424Z" fill="#B6CE4B" fill-rule="evenodd"/><path d="M248 1424 309.123 1424 363.51 1486.02 417.38 1424 496 1424 366.177 1574.56 309.123 1514.3 308.605 1617 248 1617 248 1424Z" fill="#E8E8E8" fill-rule="evenodd"/><path d="M515.96 1336C538.076 1336 556 1353.24 556 1374.5 556 1395.76 538.076 1413 515.96 1413 510.277 1413 504.617 1411.84 499.441 1409.58 491.747 1406.22 485.257 1400.51 481.092 1393.44 478.981 1389.85 477.48 1385.94 476.659 1381.89 476.409 1380.64 475.232 1376.73 475.948 1375.62 476.048 1375.46 476.208 1375.31 476.413 1375.17 478.05 1374.04 484.235 1373.37 484.235 1373.37 497.511 1372 509.698 1370.14 521.128 1364.68 506.474 1367.62 491.546 1369.26 476.582 1369.61 466.694 1369.85 456.792 1369.51 446.941 1368.62 445.468 1368.48 443.652 1368.07 443.319 1366.68 443 1365.35 444.318 1364.22 445.522 1363.49 452.491 1359.27 460.678 1356.94 468.915 1356.83 471.437 1356.79 473.991 1356.96 476.472 1356.52 480.901 1355.74 482.593 1352.84 485.252 1349.79 487.724 1346.96 490.615 1344.46 493.817 1342.42 500.353 1338.24 508.115 1336 515.96 1336Z" fill="#E8E8E8" fill-rule="evenodd"/><path d="M471 1559 470.876 1559.15 420.885 1617.66 351 1618 401.192 1559.15 401.229 1559.1 471 1559Z" fill="#E8E8E8" fill-rule="evenodd"/><path d="M516.771 1424 570.407 1424 674 1617 456.998 1617 506.959 1558.68 507.124 1558.49 508.845 1558.49 508.845 1558.45 574.052 1558.45 566.424 1542.91 536.714 1482.31 484.776 1542.82 464.035 1542.81 415 1542.81 516.771 1424Z" fill="#E8E8E8" fill-rule="evenodd"/><path d="M2121.6 1221C2122.9 1221 2124.2 1221.52 2125.2 1222.57L2145.01 1243.44C2147 1245.54 2147 1248.94 2145.01 1251.03L2125.2 1271.9C2123.21 1274 2119.98 1274 2117.99 1271.9 2116 1269.81 2116 1266.41 2117.99 1264.32L2134.2 1247.24 2117.99 1230.16C2116 1228.06 2116 1224.66 2117.99 1222.57 2118.99 1221.52 2120.29 1221 2121.6 1221Z" fill="#B7D04C" fill-rule="evenodd"/><path d="M2146.53 1218C2147.82 1218 2149.11 1218.5 2150.09 1219.49L2175.03 1244.66C2177 1246.64 2177 1249.86 2175.03 1251.84L2150.09 1277.01C2148.12 1279 2144.94 1279 2142.97 1277.01 2141 1275.03 2141 1271.81 2142.97 1269.83L2164.34 1248.25 2142.97 1226.68C2141 1224.69 2141 1221.48 2142.97 1219.49 2143.95 1218.5 2145.24 1218 2146.53 1218Z" fill="#B7D04C" fill-rule="evenodd"/><path d="M2121.6 1592C2122.9 1592 2124.2 1592.52 2125.2 1593.57L2145.01 1614.44C2147 1616.54 2147 1619.94 2145.01 1622.03L2125.2 1642.9C2123.21 1645 2119.98 1645 2117.99 1642.9 2116 1640.81 2116 1637.41 2117.99 1635.32L2134.2 1618.24 2117.99 1601.16C2116 1599.06 2116 1595.66 2117.99 1593.57 2118.99 1592.52 2120.29 1592 2121.6 1592Z" fill="#B7D04C" fill-rule="evenodd"/><path d="M2146.53 1589C2147.82 1589 2149.11 1589.5 2150.09 1590.49L2175.03 1615.66C2177 1617.64 2177 1620.86 2175.03 1622.85L2150.09 1648.01C2148.12 1650 2144.94 1650 2142.97 1648.01 2141 1646.03 2141 1642.81 2142.97 1640.83L2164.34 1619.25 2142.97 1597.68C2141 1595.69 2141 1592.48 2142.97 1590.49 2143.95 1589.5 2145.24 1589 2146.53 1589Z" fill="#B7D04C" fill-rule="evenodd"/></g></svg>