<svg width="1574" height="1271" xmlns="http://www.w3.org/2000/svg" xmlns:xlink="http://www.w3.org/1999/xlink" xml:space="preserve" overflow="hidden"><defs><clipPath id="clip0"><rect x="1557" y="433" width="1574" height="1271"/></clipPath></defs><g clip-path="url(#clip0)" transform="translate(-1557 -433)"><path d="M1837 785 2022.34 785 2187.26 981.657 2350.61 785 2589 785 2195.34 1262.43 2022.34 1071.33 2020.77 1397 1837 1397 1837 785Z" fill="#B6CE4B" fill-rule="evenodd"/><path d="M2652.12 508C2719.43 508 2774 562.621 2774 630.002 2774 697.379 2719.43 752 2652.12 752 2634.82 752 2617.58 748.319 2601.82 741.165 2578.4 730.531 2558.64 712.417 2545.97 690.018 2539.54 678.647 2534.96 666.248 2532.47 653.419 2531.71 649.477 2528.13 637.061 2530.31 633.554 2530.62 633.06 2531.1 632.588 2531.72 632.138 2536.7 628.545 2555.54 626.427 2555.54 626.427 2595.95 622.087 2633.04 616.206 2667.84 598.881 2623.24 608.203 2577.78 613.415 2532.23 614.528 2502.13 615.262 2471.99 614.208 2442.01 611.371 2437.51 610.949 2431.98 609.624 2430.97 605.22 2430 601.003 2434.02 597.423 2437.68 595.118 2458.89 581.748 2483.82 574.359 2508.89 574.006 2516.58 573.896 2524.34 574.433 2531.91 573.044 2545.38 570.564 2550.54 561.384 2558.64 551.708 2566.15 542.724 2574.96 534.832 2584.7 528.342 2604.6 515.095 2628.23 508 2652.12 508Z" fill="#B6CE4B" fill-rule="evenodd"/><path d="M2516 1211 2515.62 1211.46 2363.57 1396.92 2151 1398 2303.67 1211.46 2303.78 1211.32 2516 1211Z" fill="#B6CE4B" fill-rule="evenodd"/><path d="M2653.84 785 2816.61 785 3131 1397 2472.45 1397 2624.07 1212.08 2624.56 1211.47 2629.79 1211.47 2629.79 1211.36 2827.68 1211.36 2804.53 1162.05 2714.37 969.892 2556.74 1161.79 2493.8 1161.73 2345 1161.73 2653.84 785Z" fill="#B6CE4B" fill-rule="evenodd"/><path d="M1837 785 2022.34 785 2187.26 981.657 2350.61 785 2589 785 2195.34 1262.43 2022.34 1071.33 2020.77 1397 1837 1397 1837 785Z" fill="#B6CE4B" fill-rule="evenodd"/><path d="M2652.12 508C2719.43 508 2774 562.621 2774 630.002 2774 697.379 2719.43 752 2652.12 752 2634.82 752 2617.58 748.319 2601.82 741.165 2578.4 730.531 2558.64 712.417 2545.97 690.018 2539.54 678.647 2534.96 666.248 2532.47 653.419 2531.71 649.477 2528.13 637.061 2530.31 633.554 2530.62 633.06 2531.1 632.588 2531.72 632.138 2536.7 628.545 2555.54 626.427 2555.54 626.427 2595.95 622.087 2633.04 616.206 2667.84 598.881 2623.24 608.203 2577.78 613.415 2532.23 614.528 2502.13 615.262 2471.99 614.208 2442.01 611.371 2437.51 610.949 2431.98 609.624 2430.97 605.22 2430 601.003 2434.02 597.423 2437.68 595.118 2458.89 581.748 2483.82 574.359 2508.89 574.006 2516.58 573.896 2524.34 574.433 2531.91 573.044 2545.38 570.564 2550.54 561.384 2558.64 551.708 2566.15 542.724 2574.96 534.832 2584.7 528.342 2604.6 515.095 2628.23 508 2652.12 508Z" fill="#B6CE4B" fill-rule="evenodd"/><path d="M2516 1211 2515.62 1211.46 2363.57 1396.92 2151 1398 2303.67 1211.46 2303.78 1211.32 2516 1211Z" fill="#B6CE4B" fill-rule="evenodd"/><path d="M2653.84 785 2816.61 785 3131 1397 2472.45 1397 2624.07 1212.08 2624.56 1211.47 2629.79 1211.47 2629.79 1211.36 2827.68 1211.36 2804.53 1162.05 2714.37 969.892 2556.74 1161.79 2493.8 1161.73 2345 1161.73 2653.84 785Z" fill="#B6CE4B" fill-rule="evenodd"/><path d="M1566 656 1805 656" stroke="#303030" stroke-width="2.29167" stroke-miterlimit="1.27" fill="none" fill-rule="evenodd"/><path d="M1567 647C1571.97 647 1576 651.031 1576 656 1576 660.969 1571.97 665 1567 665 1562.03 665 1558 660.969 1558 656 1558 651.031 1562.03 647 1567 647Z" fill="#FFFFFF" fill-rule="evenodd"/><path d="M1567 646 1567 648.347C1562.78 648.347 1559.35 651.779 1559.35 656 1559.35 660.22 1562.78 663.652 1567 663.652L1567 666C1561.49 666 1557 661.512 1557 656 1557 650.488 1561.49 646 1567 646Z" fill="#303030" fill-rule="evenodd"/><path d="M1567 646C1572.51 646 1577 650.488 1577 656 1577 661.512 1572.51 666 1567 666L1567 663.652C1571.22 663.652 1574.65 660.22 1574.65 656 1574.65 651.779 1571.22 648.347 1567 648.347L1567 646Z" fill="#303030" fill-rule="evenodd"/><path d="M2119 1694 2119 1507" stroke="#303030" stroke-width="2.29167" stroke-miterlimit="1.27" fill="none" fill-rule="evenodd"/><path d="M2118.5 1685C2123.19 1685 2127 1688.81 2127 1693.5 2127 1698.19 2123.19 1702 2118.5 1702 2113.81 1702 2110 1698.19 2110 1693.5 2110 1688.81 2113.81 1685 2118.5 1685Z" fill="#FFFFFF" fill-rule="evenodd"/><path d="M2119 1684 2119 1686.35C2114.78 1686.35 2111.35 1689.78 2111.35 1694 2111.35 1698.22 2114.78 1701.65 2119 1701.65L2119 1704C2113.49 1704 2109 1699.51 2109 1694 2109 1688.49 2113.49 1684 2119 1684Z" fill="#303030" fill-rule="evenodd"/><path d="M2119 1684C2124.51 1684 2129 1688.49 2129 1694 2129 1699.51 2124.51 1704 2119 1704L2119 1701.65C2123.22 1701.65 2126.65 1698.22 2126.65 1694 2126.65 1689.78 2123.22 1686.35 2119 1686.35L2119 1684Z" fill="#303030" fill-rule="evenodd"/><path d="M3021 442 3021 630" stroke="#303030" stroke-width="2.29167" stroke-miterlimit="1.27" fill="none" fill-rule="evenodd"/><path d="M3021.5 434C3026.19 434 3030 438.031 3030 443 3030 447.969 3026.19 452 3021.5 452 3016.81 452 3013 447.969 3013 443 3013 438.031 3016.81 434 3021.5 434Z" fill="#FFFFFF" fill-rule="evenodd"/><path d="M3021 433 3021 435.348C3016.78 435.348 3013.35 438.78 3013.35 443 3013.35 447.221 3016.78 450.653 3021 450.653L3021 453C3015.49 453 3011 448.512 3011 443 3011 437.488 3015.49 433 3021 433Z" fill="#303030" fill-rule="evenodd"/><path d="M3021 433C3026.51 433 3031 437.488 3031 443 3031 448.512 3026.51 453 3021 453L3021 450.653C3025.22 450.653 3028.65 447.221 3028.65 443 3028.65 438.78 3025.22 435.348 3021 435.348L3021 433Z" fill="#303030" fill-rule="evenodd"/></g></svg>