<svg width="1137" height="828" xmlns="http://www.w3.org/2000/svg" xmlns:xlink="http://www.w3.org/1999/xlink" xml:space="preserve" overflow="hidden"><g transform="translate(-1341 -642)"><path d="M1374 987 1520.15 987 1650.2 1141.89 1779.01 987 1967 987 1656.57 1363.01 1520.15 1212.51 1518.92 1469 1374 1469 1374 987Z" fill="#B6CE4B" fill-rule="evenodd"/><path d="M2015.98 768C2069.01 768 2112 811.204 2112 864.498 2112 917.796 2069.01 961 2015.98 961 2002.35 961 1988.77 958.086 1976.36 952.427 1957.91 944.02 1942.34 929.687 1932.36 911.972 1927.29 902.976 1923.69 893.167 1921.72 883.022 1921.12 879.901 1918.31 870.083 1920.02 867.311 1920.26 866.915 1920.64 866.543 1921.13 866.189 1925.06 863.344 1939.9 861.671 1939.9 861.671 1971.73 858.237 2000.96 853.59 2028.37 839.882 1993.23 847.255 1957.42 851.379 1921.54 852.257 1897.82 852.841 1874.07 852.004 1850.46 849.766 1846.91 849.43 1842.56 848.382 1841.76 844.897 1841 841.56 1844.17 838.729 1847.05 836.904 1863.76 826.332 1883.4 820.485 1903.14 820.209 1909.21 820.121 1915.32 820.544 1921.28 819.446 1931.9 817.488 1935.95 810.225 1942.34 802.567 1948.26 795.465 1955.2 789.218 1962.87 784.088 1978.55 773.613 1997.16 768 2015.98 768Z" fill="#B6CE4B" fill-rule="evenodd"/><path d="M1909 1323 1908.7 1323.37 1788.73 1469.15 1621 1470 1741.46 1323.37 1741.55 1323.25 1909 1323Z" fill="#B6CE4B" fill-rule="evenodd"/><path d="M2017.61 987 2146.01 987 2394 1469 1874.53 1469 1994.13 1323.36 1994.52 1322.88 1998.64 1322.88 1998.64 1322.79 2154.74 1322.79 2136.48 1283.96 2065.36 1132.61 1941.02 1283.75 1891.37 1283.71 1774 1283.71 2017.61 987Z" fill="#B6CE4B" fill-rule="evenodd"/><path d="M1374 987 1520.15 987 1650.2 1141.89 1779.01 987 1967 987 1656.57 1363.01 1520.15 1212.51 1518.92 1469 1374 1469 1374 987Z" fill="#B6CE4B" fill-rule="evenodd"/><path d="M2015.98 768C2069.01 768 2112 811.204 2112 864.498 2112 917.796 2069.01 961 2015.98 961 2002.35 961 1988.77 958.086 1976.36 952.427 1957.91 944.02 1942.34 929.687 1932.36 911.972 1927.29 902.976 1923.69 893.167 1921.72 883.022 1921.12 879.901 1918.31 870.083 1920.02 867.311 1920.26 866.915 1920.64 866.543 1921.13 866.189 1925.06 863.344 1939.9 861.671 1939.9 861.671 1971.73 858.237 2000.96 853.59 2028.37 839.882 1993.23 847.255 1957.42 851.379 1921.54 852.257 1897.82 852.841 1874.07 852.004 1850.46 849.766 1846.91 849.43 1842.56 848.382 1841.76 844.897 1841 841.56 1844.17 838.729 1847.05 836.904 1863.76 826.332 1883.4 820.485 1903.14 820.209 1909.21 820.121 1915.32 820.544 1921.28 819.446 1931.9 817.488 1935.95 810.225 1942.34 802.567 1948.26 795.465 1955.2 789.218 1962.87 784.088 1978.55 773.613 1997.16 768 2015.98 768Z" fill="#B6CE4B" fill-rule="evenodd"/><path d="M1909 1323 1908.7 1323.37 1788.73 1469.15 1621 1470 1741.46 1323.37 1741.55 1323.25 1909 1323Z" fill="#B6CE4B" fill-rule="evenodd"/><path d="M2017.61 987 2146.01 987 2394 1469 1874.53 1469 1994.13 1323.36 1994.52 1322.88 1998.64 1322.88 1998.64 1322.79 2154.74 1322.79 2136.48 1283.96 2065.36 1132.61 1941.02 1283.75 1891.37 1283.71 1774 1283.71 2017.61 987Z" fill="#B6CE4B" fill-rule="evenodd"/><path d="M1520 830 1520 643" stroke="#303030" stroke-width="2.29167" stroke-miterlimit="1.27" fill="none" fill-rule="evenodd"/><path d="M1519.5 821C1524.19 821 1528 824.807 1528 829.5 1528 834.193 1524.19 838 1519.5 838 1514.81 838 1511 834.193 1511 829.5 1511 824.807 1514.81 821 1519.5 821Z" fill="#FFFFFF" fill-rule="evenodd"/><path d="M1520 820 1520 822.347C1515.78 822.347 1512.35 825.779 1512.35 830 1512.35 834.221 1515.78 837.653 1520 837.653L1520 840C1514.49 840 1510 835.512 1510 830 1510 824.488 1514.49 820 1520 820Z" fill="#303030" fill-rule="evenodd"/><path d="M1520 820C1524.96 820 1529 824.488 1529 830 1529 835.512 1524.96 840 1520 840L1520 837.653C1523.8 837.653 1526.89 834.221 1526.89 830 1526.89 825.779 1523.8 822.347 1520 822.347L1520 820Z" fill="#303030" fill-rule="evenodd"/><path d="M1341 643 1520 643" stroke="#303030" stroke-width="2.29167" stroke-miterlimit="1.27" fill="none" fill-rule="evenodd"/><path d="M2212 830 2212 643" stroke="#303030" stroke-width="2.29167" stroke-miterlimit="1.27" fill="none" fill-rule="evenodd"/><path d="M2211.5 821C2216.19 821 2220 824.807 2220 829.5 2220 834.193 2216.19 838 2211.5 838 2206.81 838 2203 834.193 2203 829.5 2203 824.807 2206.81 821 2211.5 821Z" fill="#FFFFFF" fill-rule="evenodd"/><path d="M2212 820 2212 822.347C2207.78 822.347 2204.35 825.779 2204.35 830 2204.35 834.221 2207.78 837.653 2212 837.653L2212 840C2206.49 840 2202 835.512 2202 830 2202 824.488 2206.49 820 2212 820Z" fill="#303030" fill-rule="evenodd"/><path d="M2212 820C2216.96 820 2221 824.488 2221 830 2221 835.512 2216.96 840 2212 840L2212 837.653C2215.8 837.653 2218.89 834.221 2218.89 830 2218.89 825.779 2215.8 822.347 2212 822.347L2212 820Z" fill="#303030" fill-rule="evenodd"/><path d="M2212 643 2477 643" stroke="#303030" stroke-width="2.29167" stroke-miterlimit="1.27" fill="none" fill-rule="evenodd"/></g></svg>